<?xml version="1.0" encoding="us-ascii" standalone="no"?><svg xmlns="http://www.w3.org/2000/svg" xmlns:xlink="http://www.w3.org/1999/xlink" contentStyleType="text/css" height="1639px" preserveAspectRatio="none" style="width:872px;height:1639px;background:#FFFFFF;" version="1.1" viewBox="0 0 872 1639" width="872px" zoomAndPan="magnify"><defs/><g><!--class Endereco--><g id="elem_Endereco"><rect codeLine="2" fill="#F1F1F1" height="188.875" id="Endereco" rx="2.5" ry="2.5" style="stroke:#181818;stroke-width:0.5;" width="180" x="487.5" y="1444"/><ellipse cx="542.75" cy="1460" fill="#ADD1B2" rx="11" ry="11" style="stroke:#181818;stroke-width:1.0;"/><path d="M545.5156,1455.875 Q545.6719,1455.6563 545.8594,1455.5469 Q546.0469,1455.4375 546.2656,1455.4375 Q546.6406,1455.4375 546.875,1455.7031 Q547.1094,1455.9531 547.1094,1456.5625 L547.1094,1458.0156 Q547.1094,1458.625 546.875,1458.8906 Q546.6406,1459.1563 546.2656,1459.1563 Q545.9219,1459.1563 545.7188,1458.9531 Q545.5156,1458.7656 545.4063,1458.25 Q545.3594,1457.8906 545.1719,1457.7031 Q544.8438,1457.3281 544.2344,1457.1094 Q543.625,1456.8906 543,1456.8906 Q542.2344,1456.8906 541.5938,1457.2188 Q540.9688,1457.5469 540.4688,1458.2969 Q539.9844,1459.0469 539.9844,1460.0781 L539.9844,1461.1719 Q539.9844,1462.4063 540.875,1463.2344 Q541.7656,1464.0469 543.3594,1464.0469 Q544.2969,1464.0469 544.9531,1463.7969 Q545.3438,1463.6406 545.7656,1463.2031 Q546.0313,1462.9375 546.1719,1462.8594 Q546.3281,1462.7813 546.5313,1462.7813 Q546.8594,1462.7813 547.1094,1463.0469 Q547.375,1463.2969 547.375,1463.6406 Q547.375,1463.9844 547.0313,1464.3906 Q546.5313,1464.9688 545.7344,1465.2969 Q544.6563,1465.75 543.3594,1465.75 Q541.8438,1465.75 540.6406,1465.125 Q539.6563,1464.625 538.9688,1463.5625 Q538.2813,1462.4844 538.2813,1461.2031 L538.2813,1460.0469 Q538.2813,1458.7188 538.8906,1457.5781 Q539.5156,1456.4219 540.6094,1455.8125 Q541.7031,1455.1875 542.9375,1455.1875 Q543.6719,1455.1875 544.3125,1455.3594 Q544.9688,1455.5156 545.5156,1455.875 Z " fill="#000000"/><text fill="#000000" font-family="sans-serif" font-size="14" lengthAdjust="spacing" textLength="61" x="563.25" y="1465.7285">Endereco</text><line style="stroke:#181818;stroke-width:0.5;" x1="488.5" x2="666.5" y1="1476" y2="1476"/><rect fill="none" height="6" style="stroke:#C82930;stroke-width:1.0;" width="6" x="495.5" y="1487.3047"/><text fill="#000000" font-family="sans-serif" font-size="14" lengthAdjust="spacing" textLength="142" x="507.5" y="1494.5332">tipoLogradouro: String</text><rect fill="none" height="6" style="stroke:#C82930;stroke-width:1.0;" width="6" x="495.5" y="1504.9141"/><text fill="#000000" font-family="sans-serif" font-size="14" lengthAdjust="spacing" textLength="154" x="507.5" y="1512.1426">nomeLogradouro: String</text><rect fill="none" height="6" style="stroke:#C82930;stroke-width:1.0;" width="6" x="495.5" y="1522.5234"/><text fill="#000000" font-family="sans-serif" font-size="14" lengthAdjust="spacing" textLength="71" x="507.5" y="1529.752">numero: int</text><rect fill="none" height="6" style="stroke:#C82930;stroke-width:1.0;" width="6" x="495.5" y="1540.1328"/><text fill="#000000" font-family="sans-serif" font-size="14" lengthAdjust="spacing" textLength="82" x="507.5" y="1547.3613">bairro: String</text><rect fill="none" height="6" style="stroke:#C82930;stroke-width:1.0;" width="6" x="495.5" y="1557.7422"/><text fill="#000000" font-family="sans-serif" font-size="14" lengthAdjust="spacing" textLength="87" x="507.5" y="1564.9707">cidade: String</text><rect fill="none" height="6" style="stroke:#C82930;stroke-width:1.0;" width="6" x="495.5" y="1575.3516"/><text fill="#000000" font-family="sans-serif" font-size="14" lengthAdjust="spacing" textLength="88" x="507.5" y="1582.5801">estado: String</text><rect fill="none" height="6" style="stroke:#C82930;stroke-width:1.0;" width="6" x="495.5" y="1592.9609"/><text fill="#000000" font-family="sans-serif" font-size="14" lengthAdjust="spacing" textLength="71" x="507.5" y="1600.1895">pais: String</text><rect fill="none" height="6" style="stroke:#C82930;stroke-width:1.0;" width="6" x="495.5" y="1610.5703"/><text fill="#000000" font-family="sans-serif" font-size="14" lengthAdjust="spacing" textLength="68" x="507.5" y="1617.7988">cep: String</text><line style="stroke:#181818;stroke-width:0.5;" x1="488.5" x2="666.5" y1="1624.875" y2="1624.875"/></g><!--class Pessoa--><g id="elem_Pessoa"><rect codeLine="12" fill="#F1F1F1" height="83.2188" id="Pessoa" rx="2.5" ry="2.5" style="stroke:#181818;stroke-width:0.5;" width="106" x="432.5" y="1247.5"/><ellipse cx="459.65" cy="1263.5" fill="#ADD1B2" rx="11" ry="11" style="stroke:#181818;stroke-width:1.0;"/><path d="M462.4156,1259.375 Q462.5719,1259.1563 462.7594,1259.0469 Q462.9469,1258.9375 463.1656,1258.9375 Q463.5406,1258.9375 463.775,1259.2031 Q464.0094,1259.4531 464.0094,1260.0625 L464.0094,1261.5156 Q464.0094,1262.125 463.775,1262.3906 Q463.5406,1262.6563 463.1656,1262.6563 Q462.8219,1262.6563 462.6188,1262.4531 Q462.4156,1262.2656 462.3063,1261.75 Q462.2594,1261.3906 462.0719,1261.2031 Q461.7438,1260.8281 461.1344,1260.6094 Q460.525,1260.3906 459.9,1260.3906 Q459.1344,1260.3906 458.4938,1260.7188 Q457.8688,1261.0469 457.3688,1261.7969 Q456.8844,1262.5469 456.8844,1263.5781 L456.8844,1264.6719 Q456.8844,1265.9063 457.775,1266.7344 Q458.6656,1267.5469 460.2594,1267.5469 Q461.1969,1267.5469 461.8531,1267.2969 Q462.2438,1267.1406 462.6656,1266.7031 Q462.9313,1266.4375 463.0719,1266.3594 Q463.2281,1266.2813 463.4313,1266.2813 Q463.7594,1266.2813 464.0094,1266.5469 Q464.275,1266.7969 464.275,1267.1406 Q464.275,1267.4844 463.9313,1267.8906 Q463.4313,1268.4688 462.6344,1268.7969 Q461.5563,1269.25 460.2594,1269.25 Q458.7438,1269.25 457.5406,1268.625 Q456.5563,1268.125 455.8688,1267.0625 Q455.1813,1265.9844 455.1813,1264.7031 L455.1813,1263.5469 Q455.1813,1262.2188 455.7906,1261.0781 Q456.4156,1259.9219 457.5094,1259.3125 Q458.6031,1258.6875 459.8375,1258.6875 Q460.5719,1258.6875 461.2125,1258.8594 Q461.8688,1259.0156 462.4156,1259.375 Z " fill="#000000"/><text fill="#000000" font-family="sans-serif" font-size="14" lengthAdjust="spacing" textLength="47" x="476.35" y="1269.2285">Pessoa</text><line style="stroke:#181818;stroke-width:0.5;" x1="433.5" x2="537.5" y1="1279.5" y2="1279.5"/><rect fill="none" height="6" style="stroke:#C82930;stroke-width:1.0;" width="6" x="440.5" y="1290.8047"/><text fill="#000000" font-family="sans-serif" font-size="14" lengthAdjust="spacing" textLength="80" x="452.5" y="1298.0332">nome: String</text><rect fill="none" height="6" style="stroke:#C82930;stroke-width:1.0;" width="6" x="440.5" y="1308.4141"/><text fill="#000000" font-family="sans-serif" font-size="14" lengthAdjust="spacing" textLength="64" x="452.5" y="1315.6426">cpf: String</text><line style="stroke:#181818;stroke-width:0.5;" x1="433.5" x2="537.5" y1="1322.7188" y2="1322.7188"/></g><!--class Passageiro--><g id="elem_Passageiro"><rect codeLine="16" fill="#F1F1F1" height="48" id="Passageiro" rx="2.5" ry="2.5" style="stroke:#181818;stroke-width:0.5;" width="103" x="434" y="1059.5"/><ellipse cx="449" cy="1075.5" fill="#ADD1B2" rx="11" ry="11" style="stroke:#181818;stroke-width:1.0;"/><path d="M451.7656,1071.375 Q451.9219,1071.1563 452.1094,1071.0469 Q452.2969,1070.9375 452.5156,1070.9375 Q452.8906,1070.9375 453.125,1071.2031 Q453.3594,1071.4531 453.3594,1072.0625 L453.3594,1073.5156 Q453.3594,1074.125 453.125,1074.3906 Q452.8906,1074.6563 452.5156,1074.6563 Q452.1719,1074.6563 451.9688,1074.4531 Q451.7656,1074.2656 451.6563,1073.75 Q451.6094,1073.3906 451.4219,1073.2031 Q451.0938,1072.8281 450.4844,1072.6094 Q449.875,1072.3906 449.25,1072.3906 Q448.4844,1072.3906 447.8438,1072.7188 Q447.2188,1073.0469 446.7188,1073.7969 Q446.2344,1074.5469 446.2344,1075.5781 L446.2344,1076.6719 Q446.2344,1077.9063 447.125,1078.7344 Q448.0156,1079.5469 449.6094,1079.5469 Q450.5469,1079.5469 451.2031,1079.2969 Q451.5938,1079.1406 452.0156,1078.7031 Q452.2813,1078.4375 452.4219,1078.3594 Q452.5781,1078.2813 452.7813,1078.2813 Q453.1094,1078.2813 453.3594,1078.5469 Q453.625,1078.7969 453.625,1079.1406 Q453.625,1079.4844 453.2813,1079.8906 Q452.7813,1080.4688 451.9844,1080.7969 Q450.9063,1081.25 449.6094,1081.25 Q448.0938,1081.25 446.8906,1080.625 Q445.9063,1080.125 445.2188,1079.0625 Q444.5313,1077.9844 444.5313,1076.7031 L444.5313,1075.5469 Q444.5313,1074.2188 445.1406,1073.0781 Q445.7656,1071.9219 446.8594,1071.3125 Q447.9531,1070.6875 449.1875,1070.6875 Q449.9219,1070.6875 450.5625,1070.8594 Q451.2188,1071.0156 451.7656,1071.375 Z " fill="#000000"/><text fill="#000000" font-family="sans-serif" font-size="14" lengthAdjust="spacing" textLength="71" x="463" y="1081.2285">Passageiro</text><line style="stroke:#181818;stroke-width:0.5;" x1="435" x2="536" y1="1091.5" y2="1091.5"/><line style="stroke:#181818;stroke-width:0.5;" x1="435" x2="536" y1="1099.5" y2="1099.5"/></g><!--class Motorista--><g id="elem_Motorista"><rect codeLine="18" fill="#F1F1F1" height="100.8281" id="Motorista" rx="2.5" ry="2.5" style="stroke:#181818;stroke-width:0.5;" width="171" x="212" y="1033"/><ellipse cx="264.25" cy="1049" fill="#ADD1B2" rx="11" ry="11" style="stroke:#181818;stroke-width:1.0;"/><path d="M267.0156,1044.875 Q267.1719,1044.6563 267.3594,1044.5469 Q267.5469,1044.4375 267.7656,1044.4375 Q268.1406,1044.4375 268.375,1044.7031 Q268.6094,1044.9531 268.6094,1045.5625 L268.6094,1047.0156 Q268.6094,1047.625 268.375,1047.8906 Q268.1406,1048.1563 267.7656,1048.1563 Q267.4219,1048.1563 267.2188,1047.9531 Q267.0156,1047.7656 266.9063,1047.25 Q266.8594,1046.8906 266.6719,1046.7031 Q266.3438,1046.3281 265.7344,1046.1094 Q265.125,1045.8906 264.5,1045.8906 Q263.7344,1045.8906 263.0938,1046.2188 Q262.4688,1046.5469 261.9688,1047.2969 Q261.4844,1048.0469 261.4844,1049.0781 L261.4844,1050.1719 Q261.4844,1051.4063 262.375,1052.2344 Q263.2656,1053.0469 264.8594,1053.0469 Q265.7969,1053.0469 266.4531,1052.7969 Q266.8438,1052.6406 267.2656,1052.2031 Q267.5313,1051.9375 267.6719,1051.8594 Q267.8281,1051.7813 268.0313,1051.7813 Q268.3594,1051.7813 268.6094,1052.0469 Q268.875,1052.2969 268.875,1052.6406 Q268.875,1052.9844 268.5313,1053.3906 Q268.0313,1053.9688 267.2344,1054.2969 Q266.1563,1054.75 264.8594,1054.75 Q263.3438,1054.75 262.1406,1054.125 Q261.1563,1053.625 260.4688,1052.5625 Q259.7813,1051.4844 259.7813,1050.2031 L259.7813,1049.0469 Q259.7813,1047.7188 260.3906,1046.5781 Q261.0156,1045.4219 262.1094,1044.8125 Q263.2031,1044.1875 264.4375,1044.1875 Q265.1719,1044.1875 265.8125,1044.3594 Q266.4688,1044.5156 267.0156,1044.875 Z " fill="#000000"/><text fill="#000000" font-family="sans-serif" font-size="14" lengthAdjust="spacing" textLength="58" x="284.75" y="1054.7285">Motorista</text><line style="stroke:#181818;stroke-width:0.5;" x1="213" x2="382" y1="1065" y2="1065"/><rect fill="none" height="6" style="stroke:#C82930;stroke-width:1.0;" width="6" x="220" y="1076.3047"/><text fill="#000000" font-family="sans-serif" font-size="14" lengthAdjust="spacing" textLength="98" x="232" y="1083.5332">veiculo: Veiculo</text><rect fill="none" height="6" style="stroke:#C82930;stroke-width:1.0;" width="6" x="220" y="1093.9141"/><text fill="#000000" font-family="sans-serif" font-size="14" lengthAdjust="spacing" textLength="122" x="232" y="1101.1426">disponivel: boolean</text><line style="stroke:#181818;stroke-width:0.5;" x1="213" x2="382" y1="1108.2188" y2="1108.2188"/><ellipse cx="223" cy="1122.5234" fill="#84BE84" rx="3" ry="3" style="stroke:#038048;stroke-width:1.0;"/><text fill="#000000" font-family="sans-serif" font-size="14" lengthAdjust="spacing" textLength="145" x="232" y="1126.752">podeOferecerCarona()</text></g><!--class Veiculo--><g id="elem_Veiculo"><rect codeLine="23" fill="#F1F1F1" height="153.6563" id="Veiculo" rx="2.5" ry="2.5" style="stroke:#181818;stroke-width:0.5;" width="144" x="148.5" y="1212"/><ellipse cx="193.25" cy="1228" fill="#ADD1B2" rx="11" ry="11" style="stroke:#181818;stroke-width:1.0;"/><path d="M196.0156,1223.875 Q196.1719,1223.6563 196.3594,1223.5469 Q196.5469,1223.4375 196.7656,1223.4375 Q197.1406,1223.4375 197.375,1223.7031 Q197.6094,1223.9531 197.6094,1224.5625 L197.6094,1226.0156 Q197.6094,1226.625 197.375,1226.8906 Q197.1406,1227.1563 196.7656,1227.1563 Q196.4219,1227.1563 196.2188,1226.9531 Q196.0156,1226.7656 195.9063,1226.25 Q195.8594,1225.8906 195.6719,1225.7031 Q195.3438,1225.3281 194.7344,1225.1094 Q194.125,1224.8906 193.5,1224.8906 Q192.7344,1224.8906 192.0938,1225.2188 Q191.4688,1225.5469 190.9688,1226.2969 Q190.4844,1227.0469 190.4844,1228.0781 L190.4844,1229.1719 Q190.4844,1230.4063 191.375,1231.2344 Q192.2656,1232.0469 193.8594,1232.0469 Q194.7969,1232.0469 195.4531,1231.7969 Q195.8438,1231.6406 196.2656,1231.2031 Q196.5313,1230.9375 196.6719,1230.8594 Q196.8281,1230.7813 197.0313,1230.7813 Q197.3594,1230.7813 197.6094,1231.0469 Q197.875,1231.2969 197.875,1231.6406 Q197.875,1231.9844 197.5313,1232.3906 Q197.0313,1232.9688 196.2344,1233.2969 Q195.1563,1233.75 193.8594,1233.75 Q192.3438,1233.75 191.1406,1233.125 Q190.1563,1232.625 189.4688,1231.5625 Q188.7813,1230.4844 188.7813,1229.2031 L188.7813,1228.0469 Q188.7813,1226.7188 189.3906,1225.5781 Q190.0156,1224.4219 191.1094,1223.8125 Q192.2031,1223.1875 193.4375,1223.1875 Q194.1719,1223.1875 194.8125,1223.3594 Q195.4688,1223.5156 196.0156,1223.875 Z " fill="#000000"/><text fill="#000000" font-family="sans-serif" font-size="14" lengthAdjust="spacing" textLength="46" x="213.75" y="1233.7285">Veiculo</text><line style="stroke:#181818;stroke-width:0.5;" x1="149.5" x2="291.5" y1="1244" y2="1244"/><rect fill="none" height="6" style="stroke:#C82930;stroke-width:1.0;" width="6" x="156.5" y="1255.3047"/><text fill="#000000" font-family="sans-serif" font-size="14" lengthAdjust="spacing" textLength="80" x="168.5" y="1262.5332">nome: String</text><rect fill="none" height="6" style="stroke:#C82930;stroke-width:1.0;" width="6" x="156.5" y="1272.9141"/><text fill="#000000" font-family="sans-serif" font-size="14" lengthAdjust="spacing" textLength="91" x="168.5" y="1280.1426">modelo: String</text><rect fill="none" height="6" style="stroke:#C82930;stroke-width:1.0;" width="6" x="156.5" y="1290.5234"/><text fill="#000000" font-family="sans-serif" font-size="14" lengthAdjust="spacing" textLength="79" x="168.5" y="1297.752">placa: String</text><rect fill="none" height="6" style="stroke:#C82930;stroke-width:1.0;" width="6" x="156.5" y="1308.1328"/><text fill="#000000" font-family="sans-serif" font-size="14" lengthAdjust="spacing" textLength="85" x="168.5" y="1315.3613">chassi: String</text><rect fill="none" height="6" style="stroke:#C82930;stroke-width:1.0;" width="6" x="156.5" y="1325.7422"/><text fill="#000000" font-family="sans-serif" font-size="14" lengthAdjust="spacing" textLength="118" x="168.5" y="1332.9707">anoFabricacao: int</text><rect fill="none" height="6" style="stroke:#C82930;stroke-width:1.0;" width="6" x="156.5" y="1343.3516"/><text fill="#000000" font-family="sans-serif" font-size="14" lengthAdjust="spacing" textLength="65" x="168.5" y="1350.5801">cor: String</text><line style="stroke:#181818;stroke-width:0.5;" x1="149.5" x2="291.5" y1="1357.6563" y2="1357.6563"/></g><!--class Carona--><g id="elem_Carona"><rect codeLine="31" fill="#F1F1F1" height="206.4844" id="Carona" rx="2.5" ry="2.5" style="stroke:#181818;stroke-width:0.5;" width="438" x="427.5" y="749"/><ellipse cx="618.75" cy="765" fill="#ADD1B2" rx="11" ry="11" style="stroke:#181818;stroke-width:1.0;"/><path d="M621.5156,760.875 Q621.6719,760.6563 621.8594,760.5469 Q622.0469,760.4375 622.2656,760.4375 Q622.6406,760.4375 622.875,760.7031 Q623.1094,760.9531 623.1094,761.5625 L623.1094,763.0156 Q623.1094,763.625 622.875,763.8906 Q622.6406,764.1563 622.2656,764.1563 Q621.9219,764.1563 621.7188,763.9531 Q621.5156,763.7656 621.4063,763.25 Q621.3594,762.8906 621.1719,762.7031 Q620.8438,762.3281 620.2344,762.1094 Q619.625,761.8906 619,761.8906 Q618.2344,761.8906 617.5938,762.2188 Q616.9688,762.5469 616.4688,763.2969 Q615.9844,764.0469 615.9844,765.0781 L615.9844,766.1719 Q615.9844,767.4063 616.875,768.2344 Q617.7656,769.0469 619.3594,769.0469 Q620.2969,769.0469 620.9531,768.7969 Q621.3438,768.6406 621.7656,768.2031 Q622.0313,767.9375 622.1719,767.8594 Q622.3281,767.7813 622.5313,767.7813 Q622.8594,767.7813 623.1094,768.0469 Q623.375,768.2969 623.375,768.6406 Q623.375,768.9844 623.0313,769.3906 Q622.5313,769.9688 621.7344,770.2969 Q620.6563,770.75 619.3594,770.75 Q617.8438,770.75 616.6406,770.125 Q615.6563,769.625 614.9688,768.5625 Q614.2813,767.4844 614.2813,766.2031 L614.2813,765.0469 Q614.2813,763.7188 614.8906,762.5781 Q615.5156,761.4219 616.6094,760.8125 Q617.7031,760.1875 618.9375,760.1875 Q619.6719,760.1875 620.3125,760.3594 Q620.9688,760.5156 621.5156,760.875 Z " fill="#000000"/><text fill="#000000" font-family="sans-serif" font-size="14" lengthAdjust="spacing" textLength="47" x="639.25" y="770.7285">Carona</text><line style="stroke:#181818;stroke-width:0.5;" x1="428.5" x2="864.5" y1="781" y2="781"/><rect fill="none" height="6" style="stroke:#C82930;stroke-width:1.0;" width="6" x="435.5" y="792.3047"/><text fill="#000000" font-family="sans-serif" font-size="14" lengthAdjust="spacing" textLength="124" x="447.5" y="799.5332">motorista: Motorista</text><rect fill="none" height="6" style="stroke:#C82930;stroke-width:1.0;" width="6" x="435.5" y="809.9141"/><text fill="#000000" font-family="sans-serif" font-size="14" lengthAdjust="spacing" textLength="149" x="447.5" y="817.1426">passageiro: Passageiro</text><rect fill="none" height="6" style="stroke:#C82930;stroke-width:1.0;" width="6" x="435.5" y="827.5234"/><text fill="#000000" font-family="sans-serif" font-size="14" lengthAdjust="spacing" textLength="112" x="447.5" y="834.752">origem: Endereco</text><rect fill="none" height="6" style="stroke:#C82930;stroke-width:1.0;" width="6" x="435.5" y="845.1328"/><text fill="#000000" font-family="sans-serif" font-size="14" lengthAdjust="spacing" textLength="115" x="447.5" y="852.3613">destino: Endereco</text><rect fill="none" height="6" style="stroke:#C82930;stroke-width:1.0;" width="6" x="435.5" y="862.7422"/><text fill="#000000" font-family="sans-serif" font-size="14" lengthAdjust="spacing" textLength="193" x="447.5" y="869.9707">dataHoraInicio: LocalDateTime</text><rect fill="none" height="6" style="stroke:#C82930;stroke-width:1.0;" width="6" x="435.5" y="880.3516"/><text fill="#000000" font-family="sans-serif" font-size="14" lengthAdjust="spacing" textLength="183" x="447.5" y="887.5801">dataHotaFim: LocalDateTime</text><rect fill="none" height="6" style="stroke:#C82930;stroke-width:1.0;" width="6" x="435.5" y="897.9609"/><text fill="#000000" font-family="sans-serif" font-size="14" lengthAdjust="spacing" textLength="112" x="447.5" y="905.1895">duracaoHoras: int</text><line style="stroke:#181818;stroke-width:0.5;" x1="428.5" x2="864.5" y1="912.2656" y2="912.2656"/><ellipse cx="438.5" cy="926.5703" fill="#84BE84" rx="3" ry="3" style="stroke:#038048;stroke-width:1.0;"/><text fill="#000000" font-family="sans-serif" font-size="14" lengthAdjust="spacing" textLength="412" x="447.5" y="930.7988">conflitaCom(LocalDateTime inicioOutra, LocalDateTime fimOutra)</text><ellipse cx="438.5" cy="944.1797" fill="#84BE84" rx="3" ry="3" style="stroke:#038048;stroke-width:1.0;"/><text fill="#000000" font-family="sans-serif" font-size="14" lengthAdjust="spacing" textLength="83" x="447.5" y="948.4082">obterStatus()</text></g><!--class Menu--><g id="elem_Menu"><rect codeLine="43" fill="#F1F1F1" height="664.3281" id="Menu" rx="2.5" ry="2.5" style="stroke:#181818;stroke-width:0.5;" width="415" x="7" y="7"/><ellipse cx="192.75" cy="23" fill="#ADD1B2" rx="11" ry="11" style="stroke:#181818;stroke-width:1.0;"/><path d="M195.5156,18.875 Q195.6719,18.6563 195.8594,18.5469 Q196.0469,18.4375 196.2656,18.4375 Q196.6406,18.4375 196.875,18.7031 Q197.1094,18.9531 197.1094,19.5625 L197.1094,21.0156 Q197.1094,21.625 196.875,21.8906 Q196.6406,22.1563 196.2656,22.1563 Q195.9219,22.1563 195.7188,21.9531 Q195.5156,21.7656 195.4063,21.25 Q195.3594,20.8906 195.1719,20.7031 Q194.8438,20.3281 194.2344,20.1094 Q193.625,19.8906 193,19.8906 Q192.2344,19.8906 191.5938,20.2188 Q190.9688,20.5469 190.4688,21.2969 Q189.9844,22.0469 189.9844,23.0781 L189.9844,24.1719 Q189.9844,25.4063 190.875,26.2344 Q191.7656,27.0469 193.3594,27.0469 Q194.2969,27.0469 194.9531,26.7969 Q195.3438,26.6406 195.7656,26.2031 Q196.0313,25.9375 196.1719,25.8594 Q196.3281,25.7813 196.5313,25.7813 Q196.8594,25.7813 197.1094,26.0469 Q197.375,26.2969 197.375,26.6406 Q197.375,26.9844 197.0313,27.3906 Q196.5313,27.9688 195.7344,28.2969 Q194.6563,28.75 193.3594,28.75 Q191.8438,28.75 190.6406,28.125 Q189.6563,27.625 188.9688,26.5625 Q188.2813,25.4844 188.2813,24.2031 L188.2813,23.0469 Q188.2813,21.7188 188.8906,20.5781 Q189.5156,19.4219 190.6094,18.8125 Q191.7031,18.1875 192.9375,18.1875 Q193.6719,18.1875 194.3125,18.3594 Q194.9688,18.5156 195.5156,18.875 Z " fill="#000000"/><text fill="#000000" font-family="sans-serif" font-size="14" lengthAdjust="spacing" textLength="35" x="213.25" y="28.7285">Menu</text><line style="stroke:#181818;stroke-width:0.5;" x1="8" x2="421" y1="39" y2="39"/><rect fill="none" height="6" style="stroke:#C82930;stroke-width:1.0;" width="6" x="15" y="50.3047"/><text fill="#000000" font-family="sans-serif" font-size="14" lengthAdjust="spacing" textLength="169" x="27" y="57.5332">motoristas: List&lt;Motorista&gt;</text><rect fill="none" height="6" style="stroke:#C82930;stroke-width:1.0;" width="6" x="15" y="67.9141"/><text fill="#000000" font-family="sans-serif" font-size="14" lengthAdjust="spacing" textLength="194" x="27" y="75.1426">passageiros: List&lt;Passageiro&gt;</text><rect fill="none" height="6" style="stroke:#C82930;stroke-width:1.0;" width="6" x="15" y="85.5234"/><text fill="#000000" font-family="sans-serif" font-size="14" lengthAdjust="spacing" textLength="144" x="27" y="92.752">caronas: List&lt;Carona&gt;</text><rect fill="none" height="6" style="stroke:#C82930;stroke-width:1.0;" width="6" x="15" y="103.1328"/><text fill="#000000" font-family="sans-serif" font-size="14" lengthAdjust="spacing" textLength="107" x="27" y="110.3613">teclado: Scanner</text><line style="stroke:#181818;stroke-width:0.5;" x1="8" x2="421" y1="117.4375" y2="117.4375"/><ellipse cx="18" cy="131.7422" fill="#84BE84" rx="3" ry="3" style="stroke:#038048;stroke-width:1.0;"/><text fill="#000000" font-family="sans-serif" font-size="14" lengthAdjust="spacing" textLength="166" x="27" y="135.9707">exibirMenuPrincipal(): void</text><rect fill="#F24D5C" height="6" style="stroke:#C82930;stroke-width:1.0;" width="6" x="15" y="146.3516"/><text fill="#000000" font-family="sans-serif" font-size="14" lengthAdjust="spacing" textLength="150" x="27" y="153.5801">lerBaseMotorista(): void</text><rect fill="#F24D5C" height="6" style="stroke:#C82930;stroke-width:1.0;" width="6" x="15" y="163.9609"/><text fill="#000000" font-family="sans-serif" font-size="14" lengthAdjust="spacing" textLength="195" x="27" y="171.1895">cadastraEndereco(): Endereco</text><rect fill="#F24D5C" height="6" style="stroke:#C82930;stroke-width:1.0;" width="6" x="15" y="181.5703"/><text fill="#000000" font-family="sans-serif" font-size="14" lengthAdjust="spacing" textLength="137" x="27" y="188.7988">menuMotorista(): void</text><rect fill="#F24D5C" height="6" style="stroke:#C82930;stroke-width:1.0;" width="6" x="15" y="199.1797"/><text fill="#000000" font-family="sans-serif" font-size="14" lengthAdjust="spacing" textLength="162" x="27" y="206.4082">cadastrarMotorista(): void</text><rect fill="#F24D5C" height="6" style="stroke:#C82930;stroke-width:1.0;" width="6" x="15" y="216.7891"/><text fill="#000000" font-family="sans-serif" font-size="14" lengthAdjust="spacing" textLength="132" x="27" y="224.0176">listarMotorista(): void</text><rect fill="#F24D5C" height="6" style="stroke:#C82930;stroke-width:1.0;" width="6" x="15" y="234.3984"/><text fill="#000000" font-family="sans-serif" font-size="14" lengthAdjust="spacing" textLength="156" x="27" y="241.627">procurarMotorista(): void</text><rect fill="#F24D5C" height="6" style="stroke:#C82930;stroke-width:1.0;" width="6" x="15" y="252.0078"/><text fill="#000000" font-family="sans-serif" font-size="14" lengthAdjust="spacing" textLength="135" x="27" y="259.2363">exibirMotorista(): void</text><rect fill="#F24D5C" height="6" style="stroke:#C82930;stroke-width:1.0;" width="6" x="15" y="269.6172"/><text fill="#000000" font-family="sans-serif" font-size="14" lengthAdjust="spacing" textLength="174" x="27" y="276.8457">menuEditarMotorista(): void</text><rect fill="#F24D5C" height="6" style="stroke:#C82930;stroke-width:1.0;" width="6" x="15" y="287.2266"/><text fill="#000000" font-family="sans-serif" font-size="14" lengthAdjust="spacing" textLength="258" x="27" y="294.4551">editarMotorista(Motorista motorista): void</text><rect fill="#F24D5C" height="6" style="stroke:#C82930;stroke-width:1.0;" width="6" x="15" y="304.8359"/><text fill="#000000" font-family="sans-serif" font-size="14" lengthAdjust="spacing" textLength="178" x="27" y="312.0645">menuExcluirMotorista(): void</text><rect fill="#F24D5C" height="6" style="stroke:#C82930;stroke-width:1.0;" width="6" x="15" y="322.4453"/><text fill="#000000" font-family="sans-serif" font-size="14" lengthAdjust="spacing" textLength="262" x="27" y="329.6738">excluirMotorista(Motorista motorista): void</text><rect fill="#F24D5C" height="6" style="stroke:#C82930;stroke-width:1.0;" width="6" x="15" y="340.0547"/><text fill="#000000" font-family="sans-serif" font-size="14" lengthAdjust="spacing" textLength="150" x="27" y="347.2832">menuPassageiro(): void</text><rect fill="#F24D5C" height="6" style="stroke:#C82930;stroke-width:1.0;" width="6" x="15" y="357.6641"/><text fill="#000000" font-family="sans-serif" font-size="14" lengthAdjust="spacing" textLength="175" x="27" y="364.8926">cadastrarPassageiro(): void</text><rect fill="#F24D5C" height="6" style="stroke:#C82930;stroke-width:1.0;" width="6" x="15" y="375.2734"/><text fill="#000000" font-family="sans-serif" font-size="14" lengthAdjust="spacing" textLength="145" x="27" y="382.502">listarPassageiro(): void</text><rect fill="#F24D5C" height="6" style="stroke:#C82930;stroke-width:1.0;" width="6" x="15" y="392.8828"/><text fill="#000000" font-family="sans-serif" font-size="14" lengthAdjust="spacing" textLength="169" x="27" y="400.1113">procurarPassageiro(): void</text><rect fill="#F24D5C" height="6" style="stroke:#C82930;stroke-width:1.0;" width="6" x="15" y="410.4922"/><text fill="#000000" font-family="sans-serif" font-size="14" lengthAdjust="spacing" textLength="293" x="27" y="417.7207">exibirPassageiro(Passageiro passageiro): void</text><rect fill="#F24D5C" height="6" style="stroke:#C82930;stroke-width:1.0;" width="6" x="15" y="428.1016"/><text fill="#000000" font-family="sans-serif" font-size="14" lengthAdjust="spacing" textLength="187" x="27" y="435.3301">menuEditarPassageiro(): void</text><rect fill="#F24D5C" height="6" style="stroke:#C82930;stroke-width:1.0;" width="6" x="15" y="445.7109"/><text fill="#000000" font-family="sans-serif" font-size="14" lengthAdjust="spacing" textLength="296" x="27" y="452.9395">editarPassageiro(Passageiro passageiro): void</text><rect fill="#F24D5C" height="6" style="stroke:#C82930;stroke-width:1.0;" width="6" x="15" y="463.3203"/><text fill="#000000" font-family="sans-serif" font-size="14" lengthAdjust="spacing" textLength="191" x="27" y="470.5488">menuExcluirPassageiro(): void</text><rect fill="#F24D5C" height="6" style="stroke:#C82930;stroke-width:1.0;" width="6" x="15" y="480.9297"/><text fill="#000000" font-family="sans-serif" font-size="14" lengthAdjust="spacing" textLength="300" x="27" y="488.1582">excluirPassageiro(Passageiro passageiro): void</text><rect fill="#F24D5C" height="6" style="stroke:#C82930;stroke-width:1.0;" width="6" x="15" y="498.5391"/><text fill="#000000" font-family="sans-serif" font-size="14" lengthAdjust="spacing" textLength="126" x="27" y="505.7676">menuCarona(): void</text><rect fill="#F24D5C" height="6" style="stroke:#C82930;stroke-width:1.0;" width="6" x="15" y="516.1484"/><text fill="#000000" font-family="sans-serif" font-size="14" lengthAdjust="spacing" textLength="151" x="27" y="523.377">cadastrarCarona(): void</text><rect fill="#F24D5C" height="6" style="stroke:#C82930;stroke-width:1.0;" width="6" x="15" y="533.7578"/><text fill="#000000" font-family="sans-serif" font-size="14" lengthAdjust="spacing" textLength="389" x="27" y="540.9863">criarCarona(String cpfPassageiro, LocalDateTime inicio): void</text><rect fill="#F24D5C" height="6" style="stroke:#C82930;stroke-width:1.0;" width="6" x="15" y="551.3672"/><text fill="#000000" font-family="sans-serif" font-size="14" lengthAdjust="spacing" textLength="144" x="27" y="558.5957">agendarCarona(): void</text><rect fill="#F24D5C" height="6" style="stroke:#C82930;stroke-width:1.0;" width="6" x="15" y="568.9766"/><text fill="#000000" font-family="sans-serif" font-size="14" lengthAdjust="spacing" textLength="189" x="27" y="576.2051">lerDataHora(): LocalDateTime</text><rect fill="#F24D5C" height="6" style="stroke:#C82930;stroke-width:1.0;" width="6" x="15" y="586.5859"/><text fill="#000000" font-family="sans-serif" font-size="14" lengthAdjust="spacing" textLength="172" x="27" y="593.8145">exibirAgendamentos(): void</text><rect fill="#F24D5C" height="6" style="stroke:#C82930;stroke-width:1.0;" width="6" x="15" y="604.1953"/><text fill="#000000" font-family="sans-serif" font-size="14" lengthAdjust="spacing" textLength="223" x="27" y="611.4238">exibirCaronasEmAndamento(): void</text><rect fill="#F24D5C" height="6" style="stroke:#C82930;stroke-width:1.0;" width="6" x="15" y="621.8047"/><text fill="#000000" font-family="sans-serif" font-size="14" lengthAdjust="spacing" textLength="202" x="27" y="629.0332">exibirCaronasFinalizadas(): void</text><rect fill="#F24D5C" height="6" style="stroke:#C82930;stroke-width:1.0;" width="6" x="15" y="639.4141"/><text fill="#000000" font-family="sans-serif" font-size="14" lengthAdjust="spacing" textLength="218" x="27" y="646.6426">exibirPorStatus(String status): void</text><rect fill="#F24D5C" height="6" style="stroke:#C82930;stroke-width:1.0;" width="6" x="15" y="657.0234"/><text fill="#000000" font-family="sans-serif" font-size="14" lengthAdjust="spacing" textLength="98" x="27" y="664.252">lerNumero(): int</text></g><!--link Pessoa to Endereco--><g id="link_Pessoa_Endereco"><path codeLine="81" d="M500.59,1330.59 C512.01,1361.31 526.0703,1399.1257 540.6203,1438.2857 " fill="none" id="Pessoa-to-Endereco" style="stroke:#181818;stroke-width:1.0;"/><polygon fill="#181818" points="542.71,1443.91,543.325,1434.0804,540.9686,1439.2231,535.8259,1436.8667,542.71,1443.91" style="stroke:#181818;stroke-width:1.0;"/><text fill="#000000" font-family="sans-serif" font-size="13" lengthAdjust="spacing" textLength="29" x="532.5" y="1410.4951">Mora</text><text fill="#000000" font-family="sans-serif" font-size="13" lengthAdjust="spacing" textLength="5" x="497.6752" y="1352.3095">*</text><text fill="#000000" font-family="sans-serif" font-size="13" lengthAdjust="spacing" textLength="11" x="528.4994" y="1433.249">1.</text></g><!--link Passageiro to Pessoa--><g id="link_Passageiro_Pessoa"><path codeLine="82" d="M485.5,1107.84 C485.5,1141.88 485.5,1187.61 485.5,1229.42 " fill="none" id="Passageiro-to-Pessoa" style="stroke:#181818;stroke-width:1.0;"/><polygon fill="none" points="485.5,1247.42,491.5,1229.42,479.5,1229.42,485.5,1247.42" style="stroke:#181818;stroke-width:1.0;"/></g><!--link Motorista to Pessoa--><g id="link_Motorista_Pessoa"><path codeLine="83" d="M343.25,1134.02 C375.31,1168.73 405.4347,1201.3393 435.5647,1233.9493 " fill="none" id="Motorista-to-Pessoa" style="stroke:#181818;stroke-width:1.0;"/><polygon fill="none" points="447.78,1247.17,439.9716,1229.8775,431.1578,1238.021,447.78,1247.17" style="stroke:#181818;stroke-width:1.0;"/></g><!--link Motorista to Veiculo--><g id="link_Motorista_Veiculo"><path codeLine="84" d="M278.76,1134.02 C269.9,1157.43 261.2533,1180.2982 251.3933,1206.3582 " fill="none" id="Motorista-to-Veiculo" style="stroke:#181818;stroke-width:1.0;"/><polygon fill="#181818" points="249.27,1211.97,256.196,1204.9679,251.0394,1207.2935,248.7137,1202.1369,249.27,1211.97" style="stroke:#181818;stroke-width:1.0;"/><text fill="#000000" font-family="sans-serif" font-size="13" lengthAdjust="spacing" textLength="33" x="267.5" y="1178.4951">Dirige</text><text fill="#000000" font-family="sans-serif" font-size="13" lengthAdjust="spacing" textLength="11" x="264.5028" y="1155.4139">1.</text><text fill="#000000" font-family="sans-serif" font-size="13" lengthAdjust="spacing" textLength="11" x="240.5606" y="1201.1292">1.</text></g><!--link Carona to Passageiro--><g id="link_Carona_Passageiro"><path codeLine="85" d="M539.57,955 C531.9,964.73 524.74,974.78 518.5,985 C504.25,1008.34 496.6505,1032.7657 491.7105,1053.3457 " fill="none" id="Carona-to-Passageiro" style="stroke:#181818;stroke-width:1.0;"/><polygon fill="#181818" points="490.31,1059.18,496.3002,1051.3622,491.477,1054.3181,488.5212,1049.495,490.31,1059.18" style="stroke:#181818;stroke-width:1.0;"/><text fill="#000000" font-family="sans-serif" font-size="13" lengthAdjust="spacing" textLength="62" x="519.5" y="999.4951">Pedido por</text><text fill="#000000" font-family="sans-serif" font-size="13" lengthAdjust="spacing" textLength="5" x="526.1918" y="976.9885">*</text><text fill="#000000" font-family="sans-serif" font-size="13" lengthAdjust="spacing" textLength="7" x="483.6293" y="1048.84">1</text></g><!--link Carona to Endereco--><g id="link_Carona_Endereco"><path codeLine="86" d="M631.57,955.08 C623.07,1015.69 612.72,1094.12 605.5,1164 C595.68,1259.08 588.2832,1362.1323 583.4432,1437.7523 " fill="none" id="Carona-to-Endereco" style="stroke:#181818;stroke-width:1.0;"/><polygon fill="#181818" points="583.06,1443.74,587.6267,1435.0139,583.3794,1438.7502,579.643,1434.5029,583.06,1443.74" style="stroke:#181818;stroke-width:1.0;"/><text fill="#000000" font-family="sans-serif" font-size="13" lengthAdjust="spacing" textLength="42" x="606.5" y="1178.4951">Origem</text><text fill="#000000" font-family="sans-serif" font-size="13" lengthAdjust="spacing" textLength="5" x="625.2355" y="977.0746">*</text><text fill="#000000" font-family="sans-serif" font-size="13" lengthAdjust="spacing" textLength="11" x="572.0648" y="1433.0654">1.</text></g><!--link Carona to Endereco--><g id="link_Carona_Endereco"><path codeLine="87" d="M650.65,955.32 C650.97,965.35 651.26,975.37 651.5,985 C653.65,1072.53 661.26,1094.78 653.5,1182 C646.14,1264.76 635.49,1284.28 620.5,1366 C616.58,1387.35 616.38,1392.85 611.5,1414 C609.25,1423.75 608.2426,1428.0812 605.6326,1438.1712 " fill="none" id="Carona-to-Endereco-1" style="stroke:#181818;stroke-width:1.0;"/><polygon fill="#181818" points="604.13,1443.98,610.2564,1436.2685,605.3821,1439.1393,602.5113,1434.2651,604.13,1443.98" style="stroke:#181818;stroke-width:1.0;"/><text fill="#000000" font-family="sans-serif" font-size="13" lengthAdjust="spacing" textLength="44" x="655.5" y="1178.4951">Destino</text><text fill="#000000" font-family="sans-serif" font-size="13" lengthAdjust="spacing" textLength="5" x="645.7712" y="976.9853">*</text><text fill="#000000" font-family="sans-serif" font-size="13" lengthAdjust="spacing" textLength="11" x="594.8798" y="1433.0049">1.</text></g><!--link Carona to Motorista--><g id="link_Carona_Motorista"><path codeLine="88" d="M461.28,955.04 C445.58,964.83 430.13,974.89 415.5,985 C394.51,999.51 377.2683,1012.9856 358.1683,1028.9956 " fill="none" id="Carona-to-Motorista" style="stroke:#181818;stroke-width:1.0;"/><polygon fill="#181818" points="353.57,1032.85,363.037,1030.134,357.4019,1029.638,357.8978,1024.003,353.57,1032.85" style="stroke:#181818;stroke-width:1.0;"/><text fill="#000000" font-family="sans-serif" font-size="13" lengthAdjust="spacing" textLength="83" x="416.5" y="999.4951">Conduzida por</text><text fill="#000000" font-family="sans-serif" font-size="13" lengthAdjust="spacing" textLength="5" x="441.9077" y="977.0315">*</text><text fill="#000000" font-family="sans-serif" font-size="13" lengthAdjust="spacing" textLength="7" x="353.9627" y="1022.1343">1</text></g><!--reverse link Menu to Motorista--><g id="link_Menu_Motorista"><path codeLine="89" d="M207.1653,683.3898 C210.9953,776.1098 220.38,864.31 241.5,955 C247.73,981.72 259.44,1009.81 270.55,1032.81 " fill="none" id="Menu-backto-Motorista" style="stroke:#181818;stroke-width:1.0;"/><polygon fill="none" points="206.67,671.4,202.921,677.56,207.1653,683.3898,210.9142,677.2298,206.67,671.4" style="stroke:#181818;stroke-width:1.0;"/><text fill="#000000" font-family="sans-serif" font-size="13" lengthAdjust="spacing" textLength="52" x="242.5" y="857.4951">Gerencia</text><text fill="#000000" font-family="sans-serif" font-size="13" lengthAdjust="spacing" textLength="7" x="199.4045" y="692.8735">1</text><text fill="#000000" font-family="sans-serif" font-size="13" lengthAdjust="spacing" textLength="20" x="245.3539" y="1022.0886">0..*</text></g><!--reverse link Menu to Passageiro--><g id="link_Menu_Passageiro"><path codeLine="90" d="M288.3107,682.7448 C317.1507,812.6548 343.79,926.06 355.5,955 C364.85,978.11 368,984.32 384.5,1003 C403.71,1024.74 429.45,1044.9 450.14,1059.48 " fill="none" id="Menu-backto-Passageiro" style="stroke:#181818;stroke-width:1.0;"/><polygon fill="none" points="285.71,671.03,283.1054,677.7543,288.3107,682.7448,290.9153,676.0205,285.71,671.03" style="stroke:#181818;stroke-width:1.0;"/><text fill="#000000" font-family="sans-serif" font-size="13" lengthAdjust="spacing" textLength="52" x="356.5" y="857.4951">Gerencia</text><text fill="#000000" font-family="sans-serif" font-size="13" lengthAdjust="spacing" textLength="7" x="280.297" y="692.4948">1</text><text fill="#000000" font-family="sans-serif" font-size="13" lengthAdjust="spacing" textLength="20" x="418.5165" y="1048.815">0..*</text></g><!--reverse link Menu to Carona--><g id="link_Menu_Carona"><path codeLine="91" d="M430.0267,594.9345 C478.7667,652.5945 520.32,701.75 560.23,748.96 " fill="none" id="Menu-backto-Carona" style="stroke:#181818;stroke-width:1.0;"/><polygon fill="none" points="422.28,585.77,423.0985,592.9345,430.0267,594.9345,429.2082,587.77,422.28,585.77" style="stroke:#181818;stroke-width:1.0;"/><text fill="#000000" font-family="sans-serif" font-size="13" lengthAdjust="spacing" textLength="52" x="531.5" y="715.4951">Gerencia</text><text fill="#000000" font-family="sans-serif" font-size="13" lengthAdjust="spacing" textLength="7" x="429.8729" y="591.8463">1</text><text fill="#000000" font-family="sans-serif" font-size="13" lengthAdjust="spacing" textLength="20" x="533.1602" y="738.2957">0..*</text></g><!--link Menu to Endereco--><g id="link_Menu_Endereco"><path codeLine="92" d="M49.22,671.04 C31.36,729.61 19.5,791.06 19.5,851 C19.5,851 19.5,851 19.5,1290 C19.5,1492.15 323.3049,1530.2171 481.2349,1536.6171 " fill="none" id="Menu-to-Endereco" style="stroke:#181818;stroke-width:1.0;stroke-dasharray:7.0,7.0;"/><polygon fill="#181818" points="487.23,1536.86,478.3993,1532.4989,482.2341,1536.6575,478.0754,1540.4923,487.23,1536.86" style="stroke:#181818;stroke-width:1.0;"/><text fill="#000000" font-family="sans-serif" font-size="13" lengthAdjust="spacing" textLength="52" x="20.5" y="1088.9951">Instancia</text></g><!--link Menu to Veiculo--><g id="link_Menu_Veiculo"><path codeLine="93" d="M187.32,671.03 C180.47,813.78 178.88,982.43 194.5,1134 C197.13,1159.49 200.3353,1181.2282 204.6253,1205.9782 " fill="none" id="Menu-to-Veiculo" style="stroke:#181818;stroke-width:1.0;stroke-dasharray:7.0,7.0;"/><polygon fill="#181818" points="205.65,1211.89,208.0542,1202.3391,204.7961,1206.9635,200.1717,1203.7054,205.65,1211.89" style="stroke:#181818;stroke-width:1.0;"/><text fill="#000000" font-family="sans-serif" font-size="13" lengthAdjust="spacing" textLength="52" x="186.5" y="999.4951">Instancia</text></g><!--SRC=[ZLPDJzmm4BtdLrWvBT2iscjKhKHteKM2WaJ5VTRnRaTAxCXn48BotpkEdIydMTW36-OzFy-ySSRBSwWgTYKpeGLNRn6ZJy8CbkfM7JLagjOgPOz6epnwKAf2B8Dr8MmGfV6HFQ2Uq3Xca8aWA2f3ca6m1Ap2nQBi8kyHRofu45MbeCa_OKsAmqKKukLXkeZ-m56WfiBRs9qoIYDbqdhnB93NEQNrv1vyECEgL1AVHPwolLAv0DaW5wnKcRW_M3-5te9M4bPddRmNUHju6LHNqF9yua8E748R_f8W1a6GwXhs6ZdnHstWIa_gTzczTHlxojFUXAu9hL7fm3GF4lCeYhGxHAr1r4wKQXe70x-KXXk970c-LHpo7HZn1minuXYuncA1K6jReDMf-Yelg4fvoD70LXMhqJhYsEtkQwFXorYI7R1eucTUHEsDq8y6J5sjNAm_7KBM4xyeWrlw_jwvjfdOrb9wyreERthGuguZBMO4xTgy4Hoa5Dhd9rvmZzgcya3jv5X2lZfBsRF2p2_CXVu1bUWI2c0E6LHKSDiP2mTTAaZze-LwYP3Rs29QQiNh4wjzUGkeJUmgmnFw8a2xfxvZCv8lFA_nH4u1_2dHljjB3Yuod8MBSElX8i6PE83xny6nNB9sMJQ4Folh_3kHReX_KhWTiFFspgCQEyGDH7ivzFk5uy5DZh46CMMse4yltyxFE8lCZI_NdSj6XAemgffjdvElhehBbdUATeqISdorjSyV1jKEDLzrrVmtIVvtSuLR2JjNtwF8tQqiFezPacnO_6qTT-CYPV4T5Hf7WtuboRyDypTorByeI_56hnD-Qg_RU8VsOeaZLzvW-tXm1n7lWGvbHgT4wHdkEDNxvghwaBPpLzVirdVzBHblbSpgL_efupQt4xdXg2HXyTVr-dn4_qdoDArXbZUiw2JHfHIIrkjDLm2Zp6uaRMdXkCUzim7C_WC0]--></g></svg>